<svg width="111" height="110" viewBox="0 0 111 110" fill="none" xmlns="http://www.w3.org/2000/svg">
<g style="mix-blend-mode:overlay" opacity="0.5">
<path d="M61.6933 71.8909C53.5668 76.5479 43.1755 73.7842 38.4837 65.7181C33.7918 57.652 36.5762 47.3379 44.7027 42.6809C52.8292 38.0239 63.2205 40.7876 67.9122 48.8537C72.6041 56.9198 69.8198 67.2339 61.6933 71.8909Z" fill="#FF5454"/>
<path fill-rule="evenodd" clip-rule="evenodd" d="M10.0176 -1.875C2.90432 -1.875 -2.86217 3.84864 -2.86217 10.9091L-5.03741 47.1541L-3.41448 46.2241L8.62774 66.927C9.04344 67.6416 9.99362 67.8695 10.7501 67.436C11.5066 67.0025 11.7828 66.0718 11.3671 65.3571L-0.675092 44.6543L1.60771 43.3461L12.6465 62.3237C13.0621 63.0383 14.0123 63.2662 14.7687 62.8327C15.5252 62.3992 15.8015 61.4685 15.3858 60.7539L5.15586 43.1667C4.70918 42.3988 4.96027 41.4248 5.71675 40.9913C6.47315 40.5579 7.44849 40.8289 7.89516 41.5968L19.1023 60.8639C21.4457 64.8927 20.4278 69.914 16.8998 72.6263L19.7272 77.4869C20.0599 78.059 19.8624 78.7905 19.2861 79.1208L16.6771 80.6158C16.1008 80.9461 15.3638 80.7501 15.0311 80.1781L12.2038 75.3174C8.07329 76.9939 3.18325 75.3582 0.839835 71.3294L-5.03741 61.2253L-1.90735e-06 98.75C-1.90735e-06 105.81 4.22091 110 11.3342 110L34.5588 113.75L16.688 83.0265C16.3552 82.4545 16.5527 81.723 17.129 81.3927L19.7379 79.8976C20.3142 79.5673 21.0512 79.7633 21.384 80.3354L40.2054 112.693C40.4003 113.028 40.4132 113.418 40.2746 113.75L97.5999 110.625C104.713 110.625 110.48 104.901 110.48 97.8409L112.998 75.5586H108.784C108.207 75.8888 107.47 75.6928 107.138 75.1208L86.3151 43.6531C85.9823 43.081 86.1798 42.3495 86.7562 42.0192L89.3651 40.5241C89.9415 40.1939 90.6784 40.3899 91.0111 40.9619L110.48 70V10.9091C110.48 3.84864 104.713 -1.875 97.5999 -1.875H10.0176ZM85.5232 41.6937L81.7716 35.2439L78.3799 37.1875C62.4127 9.73679 63.3986 7.24548 69.1382 3.95631L89.6975 39.3016L85.5232 41.6937ZM67.3568 81.6276C80.9009 73.866 85.5415 56.6758 77.7218 43.2322C69.9021 29.7887 52.5833 25.1826 39.0392 32.9442C25.495 40.7058 20.8545 57.896 28.6741 71.3396C36.4939 84.7831 53.8127 89.3892 67.3568 81.6276Z" fill="#FF5454"/>
<path d="M-5.03741 54.9461V48.6667L5.34146 66.5099C5.75716 67.2245 5.48092 68.1553 4.72443 68.5888C3.96795 69.0223 3.01777 68.7944 2.60207 68.0797L-5.03741 54.9461Z" fill="#FF5454"/>
</g>
</svg>
